<?xml version="1.0" encoding="UTF-8"?>
<svg width="512pt" height="512pt" version="1.0" viewBox="0 0 512 512" xmlns="http://www.w3.org/2000/svg">
<g transform="translate(0 512) scale(.1 -.1)">
<path d="m1992 4629c-474-39-949-258-1311-604-478-457-733-1123-672-1755 63-647 382-1235 841-1549 413-284 844-311 1174-76 173 123 320 346 377 570 19 76 22 109 19 210-9 261-6 316 19 372 46 102 145 163 265 163 55 0 129-17 124-28-145-291-234-476-262-550-70-180-92-300-73-395 9-42 56-101 98-123 36-18 115-18 168 1 152 53 462 359 824 811 89 111 101 123 154 143 201 77 411 270 506 466 51 104 76 198 86 328 6 64 14 124 20 134 5 10 49 81 98 159 48 77 120 195 158 262 39 67 75 122 82 122 21 0 141 67 183 101 95 78 183 228 220 376 50 194 31 441-52 678-46 129-81 135-187 31-87-84-124-105-323-179-78-30-163-64-188-77-150-77-271-189-324-300-27-57-31-76-31-152 0-49-2-88-5-88s-25 29-50 63c-319 441-818 754-1365 856-201 38-367 47-573 30zm-2-578c74-28 134-82 167-149 24-48 28-70 28-137 0-70-4-87-30-134-59-107-151-161-274-161-282 1-400 362-175 536 82 64 190 81 284 45zm1154-270c63-27 130-100 155-167 76-201-68-407-283-407-119-1-213 59-267 168-29 60-31 70-27 142 5 91 28 143 89 204 85 85 221 110 333 60zm1044-375c24-19 76-51 116-72l73-37-102-167c-327-535-720-1084-1079-1508-138-164-403-439-413-429-21 22 244 568 419 862 200 337 392 635 608 941 141 199 322 444 330 444 3 0 24-16 48-34zm-3083-31c154-75 219-268 139-415-97-178-338-215-476-73-72 75-83 103-83 213 0 79 4 102 22 136 29 54 108 124 164 146 59 23 179 20 234-7zm-63-1133c137-60 211-235 159-373-72-190-292-261-458-147-157 107-170 343-25 469 91 78 218 98 324 51z"/>
</g>
</svg>