<svg width="512pt" height="512pt" version="1.0" viewBox="0 0 512 512" xmlns="http://www.w3.org/2000/svg">
<g transform="translate(0 512) scale(.1 -.1)">
<path d="m203 5102c-100-35-171-115-193-216-8-36-10-638-8-2096l3-2045 21-46c31-66 78-114 142-146l57-28 1020-3 1020-2 156-155c150-150 157-155 197-155 37 0 48 7 105 60l64 60 74-34c41-19 93-40 117-47l42-12v-78c0-156 6-159 320-159s320 3 320 159v78l43 12c23 7 75 28 116 47l74 34 64-60c57-53 68-60 105-60 40 0 47 5 197 154l156 155 240 3c240 3 240 3 297 31 64 32 111 80 142 146 21 45 21 60 24 666 2 456 0 627-9 648-20 49-81 69-134 45-56-25-55-16-55-663s1-638-55-663c-17-8-95-12-239-12h-212l-64 66 34 75c19 41 40 93 47 116l12 43h79c89 0 128 15 146 55 19 40 17 497-2 534-20 39-55 51-145 51h-78l-12 43c-7 23-28 75-47 116l-34 74 60 64c54 57 60 68 60 106 0 40-4 45-183 224s-184 183-224 183c-38 0-49-6-106-60l-64-60-74 34c-41 19-93 40-116 47l-43 12v79c0 89-15 128-55 146-36 17-494 17-530 0-40-18-55-57-55-146v-79l-42-12c-24-7-76-28-117-47l-74-34-64 60c-57 54-68 60-106 60-40 0-45-4-224-183s-183-184-183-224c0-38 6-49 60-106l60-64-34-74c-19-41-40-93-47-116l-12-43h-78c-90 0-125-12-145-51-19-37-21-494-2-534 18-40 57-55 146-55h79l12-42c7-24 28-76 47-117l34-75-64-66h-993c-1080 0-1035-2-1061 55-9 20-12 420-12 1685v1660h2360 2360v-635c0-690-1-678 55-703 52-24 114-4 134 45 8 21 11 292 9 1048l-3 1020-28 57c-32 64-80 111-146 142l-46 21-2320 2c-2207 2-2323 2-2372-15zm4662-194c51-23 55-45 55-328v-260h-2360-2360v263c1 280 3 297 51 323 34 19 4574 21 4614 2zm-1403-2508c4-100 14-111 132-145 50-14 137-51 195-81 58-29 115-54 127-54 23 0 85 42 124 84l24 27 83-83 83-82-39-41c-50-53-71-85-71-110 0-11 25-68 54-126 30-58 67-145 81-195 34-118 45-128 145-132l80-4v-118-118l-80-4c-100-4-111-14-145-132-14-50-51-137-81-195-29-58-54-115-54-126 0-25 21-57 71-110l39-41-83-82-83-83-24 27c-39 42-101 84-124 84-12 0-69-25-127-54-58-30-145-67-195-81-118-34-128-45-132-145l-4-80h-118-118l-4 80c-4 99-16 112-118 140-41 12-130 48-196 80-67 33-130 60-141 60-23 0-56-22-108-71l-41-39-82 83-83 83 27 24c42 39 84 101 84 124 0 12-25 69-54 127-30 58-67 145-81 195-34 118-45 128-145 132l-80 4v118 118l80 4c100 4 111 14 145 132 14 50 51 137 81 195 29 58 54 115 54 127 0 23-42 85-84 124l-27 24 83 83 82 83 41-39c52-49 85-71 108-71 11 0 74 27 141 60 66 32 155 68 196 80 102 28 114 41 118 140l4 80h118 118l4-80z"/>
<path d="m591 4706c-87-48-50-186 49-186 51 0 100 49 100 99 0 75-83 124-149 87z"/>
<path d="m1031 4706c-87-48-50-186 49-186 51 0 100 49 100 99 0 75-83 124-149 87z"/>
<path d="m1471 4706c-87-48-50-186 49-186 51 0 100 49 100 99 0 75-83 124-149 87z"/>
<path d="m2271 4706c-67-37-65-143 4-174 20-9 294-12 1126-12 932 0 1104 2 1128 14 66 35 66 137 0 172-40 20-2221 21-2258 0z"/>
<path d="m3230 1984c-238-46-436-219-512-449-33-101-33-289 0-390 66-200 227-361 427-427 102-33 289-33 390 1 203 68 358 223 426 426 34 101 34 288 1 390-33 99-90 190-165 265-125 125-253 180-432 185-60 2-121 1-135-1zm273-224c70-26 147-87 200-156 157-206 93-514-135-651-252-152-588-14-663 272-27 107-14 229 36 327 49 97 168 191 280 223 75 21 206 14 282-15z"/>
<path d="m1054 3886c-33-33-34-37-34-108v-75l-70-42-71-42-63 36c-73 41-115 44-150 13-39-35-259-426-259-459 0-47 21-74 87-112l63-37-2-164-55-32c-126-73-125-87 16-334 60-106 123-207 140-226 43-46 85-46 166 1l60 35 26-19c15-10 46-28 70-40l42-21v-71c0-80 16-119 55-137 18-8 103-12 275-12h250l31 28c29 26 32 34 38 110l6 81 65 40 65 39 61-34c78-43 126-45 161-6 14 15 76 117 139 226 121 211 131 242 95 287-10 13-44 38-75 54l-56 30v82 82l60 36c69 42 90 67 90 110 0 44-236 452-272 471-42 22-75 17-139-21l-59-34-140 74v65c0 75-22 128-60 147-18 9-95 13-273 13h-249l-34-34zm416-230c0-78 18-104 88-129 28-10 86-43 129-73 89-62 111-65 184-28 28 14 52 24 54 22 19-19 114-201 110-208-4-6-24-19-46-30-63-33-66-44-64-237 1-190 0-188 72-230 24-13 43-27 43-30 0-14-113-203-122-203-5 0-30 12-54 26-57 34-95 29-160-22-27-20-86-54-131-75s-87-47-92-58c-6-11-11-47-11-80v-61h-125-125v59c0 70-25 108-85 130-39 14-123 63-184 106-44 32-73 31-136-4l-52-29-61 106-61 107 51 29c67 39 81 71 69 165-5 41-5 101 0 141s5 80 0 93c-11 27-46 59-89 81l-33 17 19 32c11 18 38 65 61 105 23 39 45 72 49 72s25-11 47-25c60-37 100-33 165 16 30 23 91 58 135 79 92 42 105 61 105 145v55h125 125v-64z"/>
<path d="m1259 3307c-259-74-341-391-147-573 74-70 125-89 233-89 107 0 163 23 235 95 74 73 95 127 95 240 0 89-2 99-34 158-57 106-155 169-273 177-36 3-83-1-109-8zm134-201c52-22 79-59 85-115 17-178-242-208-273-31-12 71 62 160 133 160 12 0 37-6 55-14z"/>
<path d="m2844 3610c-60-24-73-112-25-161l29-29h147c187 0 225 17 225 100s-38 100-217 99c-76 0-148-4-159-9z"/>
<path d="m3574 3610c-60-24-73-112-25-161l29-29h461c494 0 500 1 527 51 27 52 8 115-41 137-31 14-917 16-951 2z"/>
<path d="m2844 3130c-60-24-73-112-25-161l29-29h536c393 0 542 3 561 12 29 13 55 55 55 88s-26 75-55 88c-31 14-1066 16-1101 2z"/>
<path d="m4248 3111c-27-24-33-36-33-71s6-47 33-71c31-28 35-29 142-29 121 0 154 10 176 51 27 52 8 115-41 137-15 7-72 12-135 12-107 0-111-1-142-29z"/>
<path d="m4971 2506c-87-48-50-186 49-186 51 0 100 49 100 99 0 75-83 124-149 87z"/>
<path d="m591 1646c-87-48-50-186 49-186 51 0 100 49 100 99 0 75-83 124-149 87z"/>
<path d="m1041 1646c-28-16-50-52-51-84 0-33 28-78 57-91 15-7 120-11 289-11 281 0 309 4 334 49 18 35 12 88-14 118l-24 28-284 2c-222 2-288 0-307-11z"/>
<path d="m591 1166c-47-26-63-84-37-135 26-49 42-51 391-51h325l32 29c27 24 33 36 33 71s-6 47-33 71l-32 29h-328c-252-1-332-4-351-14z"/>
</g>
</svg>