<?xml version="1.0" encoding="UTF-8"?>
<svg width="512pt" height="512pt" version="1.0" viewBox="0 0 512 512" xmlns="http://www.w3.org/2000/svg">
<g transform="translate(0 512) scale(.1 -.1)">
<path d="m3930 5106c-63-17-134-54-181-94-23-20-116-148-216-298l-177-264h-1395-1396l-58-24c-119-49-197-128-240-242l-22-59v-1360c0-1256 1-1364 17-1415 35-113 132-215 248-263l55-22 1652-6-53-222c-30-122-56-232-59-243-5-20-12-22-167-26-184-5-222-16-298-84-59-54-91-121-97-210l-6-73-179-3-180-3-24-28c-33-38-33-96 0-134l24-28h1382 1382l24 28c33 38 33 96 0 134l-24 28-180 3-179 3-6 73c-6 89-38 156-97 210-76 68-114 79-298 84-155 4-162 6-167 26-3 11-29 121-59 243l-53 222 1652 6 58 23c117 48 219 160 249 275 11 42 13 302 13 1407v1355l-22 59c-60 159-209 266-371 266-72 0-69-9-33 90 42 114 21 284-49 384-37 55-108 120-159 145-93 48-218 63-311 37zm217-214c46-24 89-71 110-119 20-48 17-147-6-191-18-36-670-838-695-856-8-6-58 25-157 99-79 60-143 111-142 114 1 4 139 211 307 461 307 459 329 487 402 510 44 14 136 5 181-18zm-1156-986-229-343-77-7c-334-30-552-247-595-593-18-138 7-390 55-550 27-90 97-119 166-68 147 107 155 109 434 110 207 2 236 4 295 23 220 74 353 301 318 545-6 39-11 84-12 98-1 21 97 146 449 577l450 552 151-3c141-2 153-4 186-26 45-31 74-75 87-131 7-29 11-381 11-997v-953h-1575c-1711 0-1623 3-1660-54-22-33-14-91 15-120 21-21 22-21 1618-26l1597-5v-260-260l-28-47c-18-31-44-57-75-75l-47-28h-1965-1965l-47 28c-31 18-57 44-75 75l-28 47v260 260l167 5c152 5 169 7 188 26 29 29 37 87 15 120-29 44-70 54-230 54h-146l3 983c3 1082-1 1005 65 1071 57 58-22 55 1401 56h1312l-229-344zm295-246 135-101-18-24c-70-92-190-234-198-234-5-1-65 40-133 90l-123 91 17 27c98 150 169 251 176 251 5 0 70-45 144-100zm-327-432c169-126 180-135 192-178 33-116 4-241-74-318-73-72-92-76-347-77-231-1-304-11-383-52-16-8-31-13-33-10-13 12-27 138-28 242-1 183 34 294 123 388 76 81 203 134 323 136 45 1 54-4 227-131zm-259-2172c0-3 25-109 55-236s55-235 55-241c0-5-101-9-250-9s-250 4-250 9c0 6 25 114 55 241s55 233 55 236c0 2 63 4 140 4s140-2 140-4zm603-697c48-13 77-57 77-116v-43h-821-821l4 55c5 62 25 91 72 104 45 13 1442 13 1489 0z"/>
<path d="m1093 2125c-99-43-71-185 36-185 96 0 138 124 59 173-37 24-61 27-95 12z"/>
</g>
</svg>