<?xml version="1.0" standalone="no"?>
<!DOCTYPE svg PUBLIC "-//W3C//DTD SVG 20010904//EN"
 "http://www.w3.org/TR/2001/REC-SVG-20010904/DTD/svg10.dtd">
<svg version="1.0" xmlns="http://www.w3.org/2000/svg"
 width="512.000000pt" height="512.000000pt" viewBox="0 0 512.000000 512.000000"
 preserveAspectRatio="xMidYMid meet">

<g transform="translate(0.000000,512.000000) scale(0.100000,-0.100000)"
fill="#000000" stroke="none">
<path d="M395 4770 c-83 -11 -130 -28 -194 -71 -102 -68 -169 -170 -191 -291
-7 -36 -9 -551 -7 -1489 3 -1593 -3 -1468 70 -1582 66 -103 186 -180 309 -197
35 -5 390 -10 789 -10 l727 0 281 -375 c182 -242 291 -380 310 -390 38 -19
104 -19 142 0 19 10 128 148 310 390 l281 375 727 0 c399 0 754 5 789 10 123
17 243 94 309 197 73 114 67 -11 70 1582 2 938 0 1453 -7 1489 -29 160 -139
288 -297 346 l-58 21 -2155 1 c-1185 1 -2177 -2 -2205 -6z m4345 -308 c19 -9
45 -32 57 -51 l23 -34 0 -1428 0 -1427 -26 -31 c-14 -18 -36 -37 -48 -44 -16
-9 -217 -13 -833 -17 -798 -5 -812 -5 -840 -26 -15 -11 -135 -162 -265 -335
-130 -172 -242 -314 -248 -314 -6 0 -118 142 -248 314 -130 173 -250 324 -265
335 -28 21 -42 21 -840 26 -616 4 -817 8 -833 17 -12 7 -34 26 -48 44 l-26 31
0 1427 0 1428 23 34 c12 19 38 42 57 51 33 17 158 18 2180 18 2022 0 2147 -1
2180 -18z"/>
<path d="M2405 4266 c-153 -36 -280 -109 -388 -226 -76 -82 -145 -210 -174
-320 -23 -87 -23 -263 0 -350 27 -105 98 -238 166 -312 l61 -66 -57 -32 c-188
-105 -371 -296 -466 -485 -91 -183 -144 -472 -103 -569 7 -18 29 -44 47 -57
l34 -24 1035 0 1035 0 34 24 c18 13 40 39 47 57 41 97 -12 386 -103 569 -95
189 -278 380 -466 485 l-57 32 61 66 c68 74 139 207 166 312 11 42 17 104 17
175 0 134 -17 206 -80 334 -39 79 -61 109 -133 181 -151 150 -288 210 -496
216 -79 2 -140 -1 -180 -10z m285 -301 c313 -91 414 -499 181 -731 -274 -274
-750 -79 -751 307 0 160 87 311 225 388 106 59 226 71 345 36z m52 -1181 c203
-41 398 -177 518 -360 50 -76 103 -198 115 -266 l7 -38 -822 0 -822 0 7 38
c23 124 120 297 225 402 142 142 305 217 535 244 45 5 162 -4 237 -20z"/>
</g>
</svg>
