<svg enable-background="new 0 0 531.443 531.443" version="1.1" viewBox="0 0 531.44 531.44" xml:space="preserve" xmlns="http://www.w3.org/2000/svg">	
	<path d="m79.94 480.18 179.22 50.575c3.256 0.918 8.531 0.924 11.781 0.013l180.55-50.601c3.256-0.912 6.132-4.382 6.438-7.748l41.505-466.32c0.301-3.367-2.203-6.096-5.58-6.096h-456.28c-3.378 0-5.875 2.729-5.575 6.096l41.506 466.32c0.299 3.366 3.176 6.843 6.431 7.761zm44.817-382.35h281.92c3.378 0 5.869 2.729 5.563 6.096l-4.211 46.041c-0.306 3.366-3.299 6.095-6.677 6.095h-212.03c-3.378 0-5.894 2.729-5.612 6.102l3.978 48.036c0.282 3.366 3.244 6.102 6.628 6.102h202.06c3.378 0 5.869 2.729 5.562 6.096l-15.521 168.83c-0.312 3.366-3.2 6.824-6.463 7.724l-107.66 29.694c-3.257 0.899-5.901 1.701-5.901 1.787s-0.3 0.165-0.667 0.165-3.305-0.728-6.566-1.628l-108.66-30.019c-3.256-0.899-6.114-4.363-6.383-7.729l-6.353-80.312c-0.263-3.372 2.258-6.102 5.637-6.102h45.992c3.378 0 6.377 2.729 6.689 6.096l3.195 34.4c0.312 3.366 3.213 6.812 6.475 7.692l53.403 14.443c3.262 0.881 8.556 0.888 11.818 6e-3l53.733-14.455c3.262-0.875 6.175-4.314 6.5-7.681l6.145-63.679c0.324-3.366-2.154-6.089-5.533-6.089h-191.41c-3.378 0-6.359-2.729-6.659-6.096l-14.565-165.51c-0.294-3.372 2.203-6.102 5.581-6.102z"/>
</svg>