<svg width="100pt" height="100pt" version="1.0" viewBox="0 0 100 100" xmlns="http://www.w3.org/2000/svg">
<g transform="translate(0 100) scale(.1 -.1)">
<path d="m115 986c-38-17-90-72-104-109-15-39-15-715 0-754 14-38 67-92 106-109 41-18 714-20 760-3 42 15 102 79 113 119 13 46 13 694 0 740-11 40-71 104-113 119-45 17-724 14-762-3zm175-176c27-27 26-77-2-107-27-29-86-31-119-4-32 26-32 86 0 112s95 25 121-1zm472-206c68-35 87-102 88-306v-148h-80-80v155c0 152-1 156-25 180-32 33-60 31-96-4l-29-29v-151-151h-80-80v235 235h80 80v-32-32l29 28c47 45 126 53 193 20zm-452-219v-235h-80-80v228c0 126 3 232 7 235 3 4 39 7 80 7h73v-235z"/>
</g>
</svg>
