<svg width="512pt" height="512pt" version="1.0" viewBox="0 0 512 512" xmlns="http://www.w3.org/2000/svg">
<g transform="translate(0 512) scale(.1 -.1)">
<path d="m2489 5069c-143-9-329-33-523-65-648-108-943-244-1170-539-150-194-226-356-295-626-46-178-54-203-121-360-28-63-50-128-50-144 0-22 19-48 84-115 136-141 146-210 57-388-105-210-231-410-383-610-43-57-78-112-78-123 0-22 41-52 166-124 57-32 97-64 116-89 62-86 63-189 1-319l-39-81 65-51c84-65 95-95 57-159-33-56-33-61 4-76 45-19 109-86 133-138 23-53 27-161 8-227-23-82-7-209 35-272 24-38 74-63 124-63 52 0 302 65 530 138 299 96 796 273 875 312 140 69 215 151 228 248 7 59 30 90 71 97 44 9 93-16 102-51 12-46-3-143-31-199-51-105-194-219-362-289-43-18-141-54-218-81-77-26-144-51-148-55-5-4 14-36 43-71 96-119 183-279 235-432l22-68 1014 1c557 0 1015 2 1017 5 2 2-5 16-16 32-38 54-102 192-140 305-106 306-164 700-143 954 32 369 141 633 405 983 239 317 320 510 342 811 6 87 5 97-13 113-20 17-21 17-36-7-29-43-78-63-222-91-77-15-145-33-151-39s-23-41-38-79l-28-67 85-129c131-200 129-231-27-389-55-57-114-110-129-118-39-21-117-20-158 2-19 9-80 48-136 86-56 37-106 68-110 68-6 0-139-49-150-55-2-1-17-69-33-151-49-240-77-264-303-264-236 0-262 23-312 275-14 71-29 132-33 136-10 10-133 59-147 59-6 0-54-30-106-66s-111-74-131-85c-44-23-127-25-166-5-15 8-75 63-134 123-97 99-107 112-113 155-4 26-4 60 0 75 3 16 45 86 92 157l84 129-25 57c-14 32-26 62-26 68 0 19-30 29-170 57-155 31-178 41-217 92-28 36-28 38-31 200-3 159-3 165 21 206 35 60 81 81 243 113l141 27 64 156-86 129c-134 201-131 235 44 405 159 155 190 157 390 22l129-86 38 19c22 11 55 25 75 31l36 11 30 150c35 169 55 210 117 243 37 20 57 22 189 24 148 1 149 1 178 29 16 15 29 31 29 35s-28 17-62 28c-209 67-466 97-709 80zm-715-303c62-26 70-114 14-150-13-8-66-24-118-37-270-62-454-160-571-305-110-135-176-258-224-419-41-138-45-146-82-161-28-12-38-12-67 0-68 28-70 76-12 251 68 203 171 371 311 510 137 136 305 222 567 290 157 40 140 38 182 21zm-1079-1336c31-31 27-96-8-126-39-33-81-31-118 5-33 33-38 74-13 109 32 46 99 51 139 12z"/>
<path d="m3975 5071c-3-5-16-64-30-130-13-67-29-130-35-140-5-11-42-31-82-47-40-15-94-38-121-52-32-17-55-22-73-18-14 4-73 38-130 76-57 39-107 70-112 70-4 0-20-12-34-27l-27-28 30-144c16-79 30-145 32-146 1-2 35-16 75-33l74-31 128 85c114 76 135 87 191 94 35 5 93 14 129 19 121 19 256-14 370-90 257-172 308-542 108-782l-40-48 20-22c31-33 42-71 42-141v-63l101-67 102-68 49 50 50 49-76 114c-49 74-76 124-76 142 0 15 13 53 29 85 15 31 36 81 45 110 11 31 26 57 39 64 12 7 78 24 147 38l125 26 3 72 3 71-38 7c-147 26-230 47-246 62-9 10-28 47-41 83-13 35-33 83-45 106-11 23-21 54-21 68 0 15 30 71 75 138l75 112-99 99-108-71c-59-39-118-74-131-78-15-4-44 4-90 25-37 18-88 38-114 46-66 20-82 45-107 176-32 162-22 148-96 148-35 0-66-4-70-9z"/>
<path d="m2945 4698c-3-13-19-90-35-172-34-167-46-189-114-207-23-6-79-28-125-50-46-21-97-39-112-39-20 0-75 31-175 97l-145 97-151-151 96-141c52-78 98-152 101-165 5-17-4-45-26-88-17-35-42-95-55-133-37-107-39-109-235-147l-169-33v-107-108l53-10c28-6 105-22 170-35 71-14 125-31 137-41 11-10 27-41 35-68s33-89 56-138c28-63 38-95 33-111-4-12-49-85-100-163l-94-140 72-72c40-40 76-73 80-73 5 0 72 43 151 95 78 52 152 95 165 95 12 0 46-12 74-26s87-39 132-55c44-15 88-36 97-46 11-11 29-76 49-173 17-85 34-163 36-172 5-16 19-18 110-18 57 0 104 2 104 4s16 80 35 173c28 131 41 173 58 189 12 12 58 33 102 48s99 39 122 52c67 39 84 34 240-71 79-52 146-95 150-95s40 32 79 71l72 72-99 149c-54 82-99 158-99 169s13 45 29 77c16 31 41 92 56 134s36 84 46 94c10 9 69 27 136 40 65 13 142 29 171 35l52 10v108 107l-169 33c-94 18-179 39-190 47-10 8-28 42-40 77-11 35-36 97-56 138-19 40-35 83-35 94s45 87 100 170l100 150-75 74-74 75-145-97c-165-110-176-112-264-68-31 15-86 38-121 50-113 39-107 29-146 231-15 74-29 145-32 158-5 21-10 22-109 22s-104-1-109-22zm310-647c183-62 323-201 393-389 33-89 41-246 18-346-69-292-347-501-645-484-275 17-510 211-577 478-25 99-15 273 19 364 125 323 470 487 792 377z"/>
<path d="m2960 3896c-132-28-246-119-307-243-34-69-38-85-41-173-5-123 18-203 87-293 202-266 608-223 758 81 32 64 37 85 41 161 7 139-27 235-118 335-79 85-223 148-334 145-17 0-56-6-86-13zm149-372c25-21 31-33 31-65 0-99-128-125-166-34-17 43-3 90 35 110 39 21 66 18 100-11z"/>
<path d="m4143 4401c34-38 57-93 57-136-1-33-34-96-110-210l-72-107 32-77 31-78 70-12c69-13 70-13 110 15 49 34 92 87 122 151 18 39 22 66 22 143 0 85-3 101-30 153-37 75-118 149-190 176-77 29-82 27-42-18z"/>
</g>
</svg>