<svg width="100pt" height="100pt" version="1.0" viewBox="0 0 100 100" xmlns="http://www.w3.org/2000/svg">
<g transform="translate(0 100) scale(.1 -.1)">
<path d="m181 785c-19-51-21-77-21-310v-255h85 85v-45-45h48c44 0 52 4 92 45 44 45 44 45 115 45h70l185 185v218 217h-319-320l-20-55zm599-177v-172l-94-96h-95-95l-86-84v42 42h-65-65v220 220h250 250v-172z"/>
<path d="m440 565v-95h30 30v95 95h-30-30v-95z"/>
<path d="m597 654c-4-4-7-47-7-96v-88h35 36l-3 93c-3 90-3 92-28 95-14 2-29 0-33-4z"/>
</g>
</svg>
