<svg width="100pt" height="100pt" version="1.0" viewBox="0 0 100 100" xmlns="http://www.w3.org/2000/svg">
<g transform="translate(0 100) scale(.1 -.1)">
<path d="m560 778c-40-28-70-81-70-125 0-29-3-33-25-33-36 0-143 37-180 62-16 12-47 37-68 57-44 42-57 34-57-37 0-47 11-74 43-109 23-26 20-27-17-13-24 9-26 8-26-20 0-33 56-104 93-117 19-6 18-8-13-13l-35-5 35-38c19-21 52-44 72-51l38-12-40-23c-22-12-70-28-107-35l-67-12 55-24c47-22 69-25 169-25 146 0 203 20 294 106 88 82 146 209 146 319 0 16 8 35 18 42 9 7 25 23 36 35l18 22-33-9c-19-6-35-10-37-10s8 15 22 33c15 19 26 36 26 40 0 3-19-2-41-11-40-15-43-15-80 6-52 30-125 30-169 0z"/>
</g>
</svg>