<?xml version="1.0" encoding="UTF-8"?>
<svg width="512pt" height="512pt" version="1.0" viewBox="0 0 512 512" xmlns="http://www.w3.org/2000/svg">
<g transform="translate(0 512) scale(.1 -.1)">
<path d="m930 5106c-151-41-267-163-299-314-16-75-16-4389 0-4464 33-156 161-285 316-318 32-7 464-10 1283-8l1235 3 67 32c129 61 216 174 238 308 5 33 10 221 10 418v357h253c293 0 323 6 393 76 101 100 94 258-15 357-66 59-110 67-388 67h-243v49 50l268 3c296 3 309 6 377 73 116 117 88 310-57 391l-53 29-589 3c-655 3-656 3-732-62-24-20-50-57-63-86l-22-50h-318c-338 0-377-4-440-49-17-12-43-43-58-69-28-47-28-48-31-264l-3-218h-189-190l-19 38c-25 50-88 106-137 123-27 10-90 14-204 14-152 0-169-2-212-23-88-44-140-125-140-222-1-130 94-233 228-247l54-6v-122c0-146 14-197 72-255s109-70 294-70c93 0 163 4 178 11 51 23 55 103 7 128-11 7-86 11-181 11h-162l-29 29c-29 29-29 30-29 150v121h43c80 0 207 84 223 147l6 23 627-1h626l30-42c35-48 83-83 134-97 20-5 150-10 289-10h253l-3-388-3-387-27-51c-15-29-44-66-65-83-79-65-5-62-1354-59l-1224 3-41 22c-57 30-111 97-129 157-13 43-15 335-15 2226 0 2410-5 2236 66 2318 67 79 93 86 301 90l182 4 6-24c2-13 14-64 24-115 11-50 29-110 41-133 32-63 93-123 157-156l58-29h590 590l67 33c117 57 167 133 201 305l23 112 164 3c184 3 229-6 293-59 21-17 50-54 65-83l27-51 3-1147 2-1147 27-20c42-34 85-26 108 20 13 24 15 182 15 1131 0 674-4 1126-10 1163-22 134-109 247-238 308l-67 32-1245 2c-962 1-1255-1-1290-11zm1986-173c-28-161-56-217-128-252-44-21-53-21-588-21s-544 0-588 21c-75 37-106 95-127 242l-7 47h722 722l-6-37zm1399-2894c14-14 28-41 31-61 5-30 1-41-24-69l-30-34-574-3c-601-3-613-2-643 42-17 24-20 79-5 106 27 50 24 50 642 47l578-2 25-26zm-1374-191c23-45 74-88 126-108 49-18 78-20 308-20h255v-50-50h-240c-135 0-261-5-290-11-71-15-129-62-164-132l-28-57h-349-349v196 196l58 58h331 330l12-22zm1373-407c51-48 39-135-24-161-17-7-211-10-604-8l-578 3-24 28c-26 30-32 83-13 118 25 48 36 49 646 46l571-2 26-24zm-2809-22c14-14 28-42 32-62 5-32 1-41-30-72l-35-35h-145c-140 0-146 1-175 25-36 30-45 69-26 113 22 53 57 63 216 60 133-3 139-4 163-29z"/>
<path d="m2005 4857c-35-30-37-83-4-109 18-16 44-18 200-18 166 0 180 1 199 20 27 27 26 81-1 106-19 17-41 19-194 22-170 3-173 3-200-21z"/>
<path d="m3252 4777c-38-40-25-97 25-115 35-12 67 0 88 31 45 70-56 145-113 84z"/>
<path d="m2325 4035c-28-27-31-46-13-78 6-12 99-138 206-279l195-257-227-301c-240-319-250-336-206-380 20-20 54-26 85-14 9 4 111 132 227 285 116 154 213 279 217 279 3-1 96-120 206-267 245-325 243-323 287-323 55 0 89 53 65 100-7 14-115 159-240 324l-227 298 200 264c114 149 203 276 206 293 8 38-31 81-74 81-37 0-43-7-252-283-140-186-175-226-185-215-7 7-83 108-170 223-87 116-172 225-189 243-37 40-76 42-111 7z"/>
<path d="m1041 4026-22-23 3-479c3-475 3-479 26-528 97-210 345-334 566-282 150 35 287 140 349 265l32 66 6 958-22 24c-27 28-68 30-100 4l-24-19-5-469c-6-534-1-505-96-592-72-66-145-94-249-95-67-1-89 3-137 26-74 35-145 101-174 163l-24 50v453 453l-25 24c-31 32-74 33-104 1z"/>
<path d="m2182 949c-90-45-151-158-137-254 11-67 61-144 119-180l49-30 371-3c264-2 383 0 414 9 53 15 129 81 153 134 53 116-2 268-115 321-51 24-52 24-431 24-367 0-381-1-423-21zm812-155c38-38 36-95-3-135l-29-29h-346c-237 0-353 4-370 11-32 15-60 72-51 106 3 13 17 36 30 49l24 24h359 359l27-26z"/>
</g>
</svg>